<?xml version="1.0" encoding="UTF-8"?>
<svg xmlns="http://www.w3.org/2000/svg" viewBox="0 0 512 512" width="512" height="512">
  <!-- Soil -->
  <ellipse fill="#5D4037" cx="256" cy="320" rx="120" ry="20"/>
  <path fill="#4E342E" d="M256 310q-40 0 -40 10q0 10 40 10q40 0 40-10q0-10-40-10z"/>

  <!-- Stem -->
  <rect fill="#4CAF50" x="248" y="80" width="16" height="240" rx="8"/>

  <!-- Petals -->
  <g fill="#E91E63">
    <path d="M256 120c-20 0-36-16-36-36s16-36 36-36s36 16 36 36s-16 36-36 36z"/>
    <path d="M256 120c-20 0-36 16-36 36s16 36 36 36s36-16 36-36s-16-36-36-36z" transform="rotate(45 256 120)"/>
    <path d="M256 120c-20 0-36 16-36 36s16 36 36 36s36-16 36-36s-16-36-36-36z" transform="rotate(90 256 120)"/>
    <path d="M256 120c-20 0-36 16-36 36s16 36 36 36s36-16 36-36s-16-36-36-36z" transform="rotate(135 256 120)"/>
    <path d="M256 120c-20 0-36 16-36 36s16 36 36 36s36-16 36-36s-16-36-36-36z" transform="rotate(-45 256 120)"/>
    <path d="M256 120c-20 0-36 16-36 36s16 36 36 36s36-16 36-36s-16-36-36-36z" transform="rotate(-90 256 120)"/>
    <path d="M256 120c-20 0-36 16-36 36s16 36 36 36s36-16 36-36s-16-36-36-36z" transform="rotate(-135 256 120)"/>
  </g>

  <!-- Flower center -->
  <circle fill="#FF9800" cx="256" cy="120" r="24"/>
  <circle fill="#FFC107" cx="256" cy="120" r="16"/>

  <!-- Left leaf -->
  <path fill="#66BB6A" d="
    M228 240
    Q188 280, 168 240
    Q178 200, 228 200
    Q248 210, 248 240
    Q248 270, 228 240
    Z"/>

  <!-- Right leaf -->
  <path fill="#66BB6A" d="
    M284 260
    Q324 300, 344 260
    Q334 220, 284 220
    Q264 230, 264 260
    Q264 290, 284 260
    Z"/>

</svg>