<?xml version="1.0" encoding="UTF-8"?>
<svg width="700" height="173" viewBox="0 0 185.20831 45.772917" xmlns="http://www.w3.org/2000/svg">
  <g transform="translate(-10.719394 -8.3606015)">
    <path fill="none" stroke="#5C6BC0" stroke-width="0.629" stroke-dasharray="0.629,7.548" d="m11.898224 52.325484c1.606042.408355 3.264302.523163 4.91177.631547 2.028542.107961 4.058988.17816 6.090386.189524 1.696242.0046 3.391934-.03548 5.087669-.06999 1.836529-.03962 3.673547-.03634 5.510289-.057 2.066589-.04689 4.133258-.02976 6.199783.0057 2.137834.05438 4.275889.09979 6.413281.170011 1.954339.08523 3.909245.102857 5.864534.05213 1.776312-.05874 3.552462-.121711 5.328632-.184553 1.61931-.08494 3.240127-.125714 4.860819-.171709 1.765612-.04549 3.53156-.0732 5.297117-.12142 2.124411-.07118 4.248306-.154874 6.373312-.206547 2.062411-.03349 4.124965-.05531 6.18744-.08588 1.314611-.03288 2.628839-.02778 3.943435-.0049 1.240938.007 2.480873.05014 3.72065.100385 1.366123.04525 2.732627.08059 4.099123.113181 1.485456.05403 2.971422.08655 4.457708.104651 1.540536.01545 3.081166.01524 4.621768.01579 1.84834-.0109 3.69638.04195 5.54262.125987 1.89387.11343 3.78737.231622 5.6816.339669 2.33766.131856 4.67525.264748 7.01254.403106 2.68966.165002 5.38456.196525 8.07837.219639 3.30928.01812 6.61843.05182 9.92771.07027 2.33654.02008 4.67305-.01212 7.00943-.0357 1.77461.0072 3.54912.02943 5.32372.04033 2.42855.02244 4.85671.01294 7.28453-.05041 1.75278-.03231 3.50166-.153379 5.2508-.261631 1.75088-.127468 3.50148-.25301 5.25535-.331062 1.92476-.07248 3.85125-.0753 5.7771-.08107 1.72806-.0031 3.45612-.0011 5.18419-.000259 2.34535.0011 4.6907.0011 7.03606.0013 1.99584.000097 3.99168.00009 5.98752.000084 1.11115.0016 2.22132-.03766 3.33018-.105812.19749-.01095.39054-.04286.58307-.08545 0 0-.30993-1.2861-.30993-1.2861v0c-.11417.03688-.23681.03256-.35435.05113-1.08182.06658-2.16491.104847-3.24897.103318-1.99581.000006-3.99163.000013-5.98744-.000085-2.34518-.000143-4.69037-.000265-7.03555-.0013-1.72958-.000794-3.45917-.0029-5.18874.000265-1.94416.0058-3.88897.0088-5.83202.08237-1.76147.07855-3.51973.203912-5.2782.332277-1.73342.107302-3.46658.227592-5.20362.259554-2.4136.06313-4.82753.07221-7.24185.04998-1.78176-.01095-3.56343-.03342-5.3452-.04028-2.32948.02352-4.65907.05569-6.98871.03566-3.30795-.01844-6.61578-.05215-9.92374-.07024-2.67151-.02289-5.34413-.05379-8.01154-.217377-2.33823-.138414-4.67677-.271364-7.01538-.403272-1.8993-.108337-3.79786-.22701-5.69683-.34045-1.8661-.08479-3.73401-.138332-5.60224-.127352-1.535392-.000529-3.070821-.000265-4.606153-.01569-1.481143-.01799-2.961961-.05059-4.442275-.104373-1.359146-.03239-2.718298-.06759-4.077078-.112472-1.249958-.05066-2.500083-.09405-3.75121-.101269-1.328798-.02312-2.657242-.0282-3.986054.0048-2.066665.03063-4.133408.05244-6.200007.08613-2.126324.05175-4.251548.135265-6.377271.20665-1.766025.04827-3.532447.07586-5.298524.121457-1.623775.04611-3.247676.0869-4.870067.172003-1.772049.06272-3.544088.125476-5.316278.184176-1.929342.05042-3.858278.0322-5.786681-.05186-2.144302-.07039-4.289266-.116083-6.434013-.170529-2.079051-.03565-4.158255-.05283-6.237369-.0058-1.840749.02077-3.681773.01736-5.522307.05719-1.684337.03428-3.368626.07414-5.053465.06973-2.004936-.01087-4.008912-.08077-6.011048-.186705-1.551341-.101534-3.11268-.205878-4.627049-.581197z"/>
    <path fill="#5C6BC0" d="m11.995947 52.476381 8.836889-.09789 6.051119-6.9416 6.681176 7.194719 8.737174-.149389-.004-23.191264 13.773259.15158 5.91707-13.572006 1.672852.689229-.03105-2.528635-3.43811-.241431-8.061462 8.051599L46.979347 11.553263 39.510692 8.3606015 23.718322 10.13207 10.719394 21.469835Z"/>
    <path fill="#7986CB" d="m169.61087 52.762008 4.54314-.166715 3.02361-3.439335 3.52721 3.389789 4.49122-.190269-.29764-11.217363 7.08486-.112713 2.87045-6.644602.86902.310779-.0481-1.222662-1.77111-.07034-4.04333 4.003385-2.77989-4.906661-3.88132-1.443386-8.09877 1.070158-6.54068 5.65957z"/>
    <path fill="#3F51B5" d="m139.93486 52.958947 4.66313.102604 3.30484-3.366386 3.40746 3.711274 4.61136.07516.37391-11.593588 7.26305.311974 3.34189-6.683276.87125.373239.0248-1.264614-1.80971-.179655-4.38333 3.886808-2.55032-5.231413-3.88788-1.724118-8.35944.61474-7.04131 5.444911z"/>
    <path fill="#2a7ae2" d="m109.0884 51.945261 4.66137.164003 3.34891-3.322539 3.35826 3.755841 4.60997.135927.52663-11.587659 7.25831.40763 3.42966-6.63866.86626.384683.0415-1.264175-1.80719-.203496-4.43416 3.828725-2.48118-5.264558-3.86482-1.775194-8.36681.504549-7.11243 5.351667z"/>
  </g>
</svg>