<?xml version="1.0" encoding="UTF-8" standalone="no"?>
<!-- Created with Inkscape (http://www.inkscape.org/) -->

<svg
   width="700"
   height="173"
   viewBox="0 0 185.20831 45.772917"
   version="1.1"
   id="svg1"
   xml:space="preserve"
   inkscape:version="1.3.2 (091e20ef0f, 2023-11-25)"
   sodipodi:docname="elephant-path.svg"
   xmlns:inkscape="http://www.inkscape.org/namespaces/inkscape"
   xmlns:sodipodi="http://sodipodi.sourceforge.net/DTD/sodipodi-0.dtd"
   xmlns="http://www.w3.org/2000/svg"
   xmlns:svg="http://www.w3.org/2000/svg"
   xmlns:rdf="http://www.w3.org/1999/02/22-rdf-syntax-ns#"
   xmlns:cc="http://creativecommons.org/ns#"><sodipodi:namedview
     id="namedview1"
     pagecolor="#ffffff"
     bordercolor="#666666"
     borderopacity="1.0"
     inkscape:showpageshadow="2"
     inkscape:pageopacity="0.0"
     inkscape:pagecheckerboard="0"
     inkscape:deskcolor="#d1d1d1"
     inkscape:document-units="mm"
     inkscape:zoom="2.0008558"
     inkscape:cx="324.11131"
     inkscape:cy="48.729149"
     inkscape:window-width="2560"
     inkscape:window-height="1371"
     inkscape:window-x="0"
     inkscape:window-y="0"
     inkscape:window-maximized="1"
     inkscape:current-layer="layer2"
     shape-rendering="crispEdges"
     showborder="false" /><defs
     id="defs1"><inkscape:path-effect
       effect="bspline"
       id="path-effect58021"
       is_visible="true"
       lpeversion="1.3"
       weight="33.333333"
       steps="2"
       helper_size="0"
       apply_no_weight="true"
       apply_with_weight="true"
       only_selected="false"
       uniform="false" /><inkscape:path-effect
       effect="powerstroke"
       id="path-effect58020"
       is_visible="true"
       lpeversion="1.3"
       scale_width="1"
       interpolator_type="CubicBezierJohan"
       interpolator_beta="0.2"
       start_linecap_type="zerowidth"
       end_linecap_type="zerowidth"
       offset_points="0,4.9921382"
       linejoin_type="extrp_arc"
       miter_limit="4"
       not_jump="false"
       sort_points="true"
       message="&lt;b&gt;Ctrl + click&lt;/b&gt; on existing node and move it" /><inkscape:path-effect
       effect="spiro"
       id="path-effect58019"
       is_visible="true"
       lpeversion="1" /></defs><g
     inkscape:label="Layer 1"
     inkscape:groupmode="layer"
     id="layer1"
     transform="translate(-10.719394,-8.3606015)" /><g
     inkscape:groupmode="layer"
     id="layer2"
     inkscape:label="Layer 2"
     transform="translate(-10.719394,-8.3606015)"><path
       style="fill:#474747;fill-opacity:1;stroke:none;stroke-width:0.264583px;stroke-linecap:butt;stroke-linejoin:miter;stroke-opacity:1"
       d="m 11.995947,52.476381 8.836889,-0.09789 6.051119,-6.9416 6.681176,7.194719 8.737174,-0.149389 -0.004,-23.191264 13.773259,0.15158 5.91707,-13.572006 1.672852,0.689229 -0.03105,-2.528635 -3.43811,-0.241431 -8.061462,8.051599 L 46.979347,11.553263 39.510692,8.3606015 23.718322,10.13207 10.719394,21.469835 Z"
       id="path58018" /><path
       style="fill:#474747;fill-opacity:1;stroke:none;stroke-width:0.132002px;stroke-linecap:butt;stroke-linejoin:miter;stroke-opacity:1"
       d="m 169.61087,52.762008 4.54314,-0.166715 3.02361,-3.439335 3.52721,3.389789 4.49122,-0.190269 -0.29764,-11.217363 7.08486,-0.112713 2.87045,-6.644602 0.86902,0.310779 -0.0481,-1.222662 -1.77111,-0.07034 -4.04333,4.003385 -2.77989,-4.906661 -3.88132,-1.443386 -8.09877,1.070158 -6.54068,5.65957 z"
       id="path58018-6" /><path
       style="fill:#47474f;fill-opacity:1;stroke:none;stroke-width:0.135942px;stroke-linecap:butt;stroke-linejoin:miter;stroke-opacity:1"
       d="m 139.93486,52.958947 4.66313,0.102604 3.30484,-3.366386 3.40746,3.711274 4.61136,0.07516 0.37391,-11.593588 7.26305,0.311974 3.34189,-6.683276 0.87125,0.373239 0.0248,-1.264614 -1.80971,-0.179655 -4.38333,3.886808 -2.55032,-5.231413 -3.88788,-1.724118 -8.35944,0.61474 -7.04131,5.444911 z"
       id="path58018-2" /><path
       style="fill:#47474f;fill-opacity:1;stroke:none;stroke-width:0.135942px;stroke-linecap:butt;stroke-linejoin:miter;stroke-opacity:1"
       d="m 109.0884,51.945261 4.66137,0.164003 3.34891,-3.322539 3.35826,3.755841 4.60997,0.135927 0.52663,-11.587659 7.25831,0.40763 3.42966,-6.63866 0.86626,0.384683 0.0415,-1.264175 -1.80719,-0.203496 -4.43416,3.828725 -2.48118,-5.264558 -3.86482,-1.775194 -8.36681,0.504549 -7.11243,5.351667 z"
       id="path58018-2-3" /><path
       style="fill:#474747;fill-opacity:1;stroke:none;stroke-width:0.628999;stroke-dasharray:0.628999, 7.54801;stroke-dashoffset:0;stroke-opacity:1"
       id="path58021"
       d="m 11.898224,52.325484 c 1.606042,0.408355 3.264302,0.523163 4.91177,0.631547 2.028542,0.107961 4.058988,0.17816 6.090386,0.189524 1.696242,0.0046 3.391934,-0.03548 5.087669,-0.06999 1.836529,-0.03962 3.673547,-0.03634 5.510289,-0.057 2.066589,-0.04689 4.133258,-0.02976 6.199783,0.0057 2.137834,0.05438 4.275889,0.09979 6.413281,0.170011 1.954339,0.08523 3.909245,0.102857 5.864534,0.05213 1.776312,-0.05874 3.552462,-0.121711 5.328632,-0.184553 1.61931,-0.08494 3.240127,-0.125714 4.860819,-0.171709 1.765612,-0.04549 3.53156,-0.0732 5.297117,-0.12142 2.124411,-0.07118 4.248306,-0.154874 6.373312,-0.206547 2.062411,-0.03349 4.124965,-0.05531 6.18744,-0.08588 1.314611,-0.03288 2.628839,-0.02778 3.943435,-0.0049 1.240938,0.007 2.480873,0.05014 3.72065,0.100385 1.366123,0.04525 2.732627,0.08059 4.099123,0.113181 1.485456,0.05403 2.971422,0.08655 4.457708,0.104651 1.540536,0.01545 3.081166,0.01524 4.621768,0.01579 1.84834,-0.0109 3.69638,0.04195 5.54262,0.125987 1.89387,0.11343 3.78737,0.231622 5.6816,0.339669 2.33766,0.131856 4.67525,0.264748 7.01254,0.403106 2.68966,0.165002 5.38456,0.196525 8.07837,0.219639 3.30928,0.01812 6.61843,0.05182 9.92771,0.07027 2.33654,0.02008 4.67305,-0.01212 7.00943,-0.0357 1.77461,0.0072 3.54912,0.02943 5.32372,0.04033 2.42855,0.02244 4.85671,0.01294 7.28453,-0.05041 1.75278,-0.03231 3.50166,-0.153379 5.2508,-0.261631 1.75088,-0.127468 3.50148,-0.25301 5.25535,-0.331062 1.92476,-0.07248 3.85125,-0.0753 5.7771,-0.08107 1.72806,-0.0031 3.45612,-0.0011 5.18419,-2.59e-4 2.34535,0.0011 4.6907,0.0011 7.03606,0.0013 1.99584,9.7e-5 3.99168,9e-5 5.98752,8.4e-5 1.11115,0.0016 2.22132,-0.03766 3.33018,-0.105812 0.19749,-0.01095 0.39054,-0.04286 0.58307,-0.08545 0,0 -0.30993,-1.2861 -0.30993,-1.2861 v 0 c -0.11417,0.03688 -0.23681,0.03256 -0.35435,0.05113 -1.08182,0.06658 -2.16491,0.104847 -3.24897,0.103318 -1.99581,5e-6 -3.99163,1.3e-5 -5.98744,-8.5e-5 -2.34518,-1.43e-4 -4.69037,-2.65e-4 -7.03555,-0.0013 -1.72958,-7.94e-4 -3.45917,-0.0029 -5.18874,2.65e-4 -1.94416,0.0058 -3.88897,0.0088 -5.83202,0.08237 -1.76147,0.07855 -3.51973,0.203912 -5.2782,0.332277 -1.73342,0.107302 -3.46658,0.227592 -5.20362,0.259554 -2.4136,0.06313 -4.82753,0.07221 -7.24185,0.04998 -1.78176,-0.01095 -3.56343,-0.03342 -5.3452,-0.04028 -2.32948,0.02352 -4.65907,0.05569 -6.98871,0.03566 -3.30795,-0.01844 -6.61578,-0.05215 -9.92374,-0.07024 -2.67151,-0.02289 -5.34413,-0.05379 -8.01154,-0.217377 -2.33823,-0.138414 -4.67677,-0.271364 -7.01538,-0.403272 -1.8993,-0.108337 -3.79786,-0.22701 -5.69683,-0.34045 -1.8661,-0.08479 -3.73401,-0.138332 -5.60224,-0.127352 -1.535392,-5.29e-4 -3.070821,-2.65e-4 -4.606153,-0.01569 -1.481143,-0.01799 -2.961961,-0.05059 -4.442275,-0.104373 -1.359146,-0.03239 -2.718298,-0.06759 -4.077078,-0.112472 -1.249958,-0.05066 -2.500083,-0.09405 -3.75121,-0.101269 -1.328798,-0.02312 -2.657242,-0.0282 -3.986054,0.0048 -2.066665,0.03063 -4.133408,0.05244 -6.200007,0.08613 -2.126324,0.05175 -4.251548,0.135265 -6.377271,0.20665 -1.766025,0.04827 -3.532447,0.07586 -5.298524,0.121457 -1.623775,0.04611 -3.247676,0.0869 -4.870067,0.172003 -1.772049,0.06272 -3.544088,0.125476 -5.316278,0.184176 -1.929342,0.05042 -3.858278,0.0322 -5.786681,-0.05186 -2.144302,-0.07039 -4.289266,-0.116083 -6.434013,-0.170529 -2.079051,-0.03565 -4.158255,-0.05283 -6.237369,-0.0058 -1.840749,0.02077 -3.681773,0.01736 -5.522307,0.05719 -1.684337,0.03428 -3.368626,0.07414 -5.053465,0.06973 -2.004936,-0.01087 -4.008912,-0.08077 -6.011048,-0.186705 -1.551341,-0.101534 -3.11268,-0.205878 -4.627049,-0.581197 z" /></g><metadata
     id="metadata58021"><rdf:RDF><cc:Work
         rdf:about=""><cc:license
           rdf:resource="http://creativecommons.org/publicdomain/zero/1.0/" /></cc:Work><cc:License
         rdf:about="http://creativecommons.org/publicdomain/zero/1.0/"><cc:permits
           rdf:resource="http://creativecommons.org/ns#Reproduction" /><cc:permits
           rdf:resource="http://creativecommons.org/ns#Distribution" /><cc:permits
           rdf:resource="http://creativecommons.org/ns#DerivativeWorks" /></cc:License></rdf:RDF></metadata></svg>
